M48
; DRILL file {KiCad (6.0.4)} date Mon 09 May 2022 12:24:40 PM WEST
; FORMAT={-:-/ absolute / metric / decimal}
; #@! TF.CreationDate,2022-05-09T12:24:40+01:00
; #@! TF.GenerationSoftware,Kicad,Pcbnew,(6.0.4)
; #@! TF.FileFunction,Plated,1,2,PTH
FMAT,2
METRIC
; #@! TA.AperFunction,Plated,PTH,ViaDrill
T1C0.200
; #@! TA.AperFunction,Plated,PTH,ViaDrill
T2C0.300
; #@! TA.AperFunction,Plated,PTH,ComponentDrill
T3C0.762
; #@! TA.AperFunction,Plated,PTH,ComponentDrill
T4C0.800
; #@! TA.AperFunction,Plated,PTH,ComponentDrill
T5C0.900
; #@! TA.AperFunction,Plated,PTH,ComponentDrill
T6C1.000
; #@! TA.AperFunction,Plated,PTH,ComponentDrill
T7C1.520
%
G90
G05
T1
X175.5Y-46.4
X180.0Y-47.2
X180.0Y-60.2
X180.1Y-76.5
X180.1Y-82.7
X180.7Y-62.8
X180.9Y-58.7
X181.84Y-60.26
X182.48Y-47.72
X182.48Y-57.72
X183.1Y-45.2
X184.3Y-44.7
X185.1Y-78.6
X185.1Y-82.7
X186.6Y-45.6
X186.6Y-61.5
X187.3Y-44.7
X187.3Y-62.8
X188.14Y-65.34
X188.8Y-44.6
X188.8Y-64.0
X189.1Y-80.7
X189.12Y-67.88
X189.975Y-74.825
X189.975Y-78.575
X190.0Y-57.5
X190.0Y-71.8
X190.02Y-80.02
X192.08Y-47.72
X192.1Y-44.6
X193.7Y-61.3
X194.4Y-45.6
X194.98Y-57.48
X195.02Y-61.12
X195.2Y-47.2
X195.3Y-65.1
X195.3Y-70.6
X196.8Y-47.3
X196.8Y-62.6
X196.8Y-71.8
X197.28Y-60.02
X197.3Y-69.8
X199.52Y-44.48
X200.2Y-69.8
X200.2Y-71.8
X202.0Y-46.3
X202.0Y-69.1
X202.9Y-46.8
X202.9Y-70.6
X209.72Y-71.02
X211.0Y-54.3
X211.02Y-71.02
X211.9Y-52.4
X212.0Y-72.0
X212.0Y-81.3
X214.8Y-46.3
X214.8Y-81.3
X216.4Y-56.7
X216.6Y-60.1
X219.3Y-56.9
X220.22Y-80.02
X221.84Y-55.06
X224.38Y-65.12
X224.38Y-71.98
X224.4Y-57.5
X225.3Y-46.8
X225.7Y-56.9
X226.915Y-79.985
X226.92Y-59.52
X226.92Y-71.02
X228.14Y-55.06
X229.4Y-80.7
X230.7Y-57.5
X233.2Y-58.2
X235.8Y-47.3
X240.8Y-64.1
X244.695Y-71.905
X245.757Y-73.257
X245.9Y-75.2
X247.235Y-71.065
X251.6Y-67.3
X253.5Y-60.9
T2
X175.8Y-70.1
X177.5Y-86.3
X184.52Y-46.42
X186.3Y-73.0
X186.3Y-76.5
X192.18Y-70.08
X194.1Y-86.3
X198.6Y-74.9
X199.78Y-46.42
X201.0Y-48.1
X202.12Y-40.88
X204.56Y-49.86
X204.6Y-86.3
X207.8Y-70.4
X207.8Y-74.0
X209.72Y-40.88
X209.96Y-49.86
X210.0Y-55.9
X214.1Y-62.5
X214.1Y-65.1
X214.1Y-69.1
X214.11Y-55.99
X214.11Y-59.21
X217.5Y-86.3
X217.52Y-40.88
X220.28Y-40.82
X223.125Y-55.825
X225.3Y-86.3
X227.62Y-40.82
X230.72Y-40.82
X235.8Y-86.3
X241.22Y-40.82
X246.3Y-86.3
X251.72Y-40.82
X251.72Y-56.48
X256.78Y-56.48
X256.8Y-86.3
T3
X214.215Y-49.73
X214.215Y-77.67
X216.755Y-49.73
X216.755Y-77.67
X219.295Y-49.73
X219.295Y-77.67
X221.835Y-49.73
X221.835Y-77.67
X224.375Y-49.73
X224.375Y-77.67
X226.915Y-49.73
X226.915Y-77.67
X229.455Y-49.73
X229.455Y-77.67
X231.995Y-49.73
X231.995Y-77.67
X234.535Y-49.73
X234.535Y-77.67
X237.075Y-49.73
X237.075Y-77.67
X239.615Y-49.73
X239.615Y-77.67
X242.155Y-49.73
X242.155Y-77.67
X244.695Y-49.73
X244.695Y-77.67
X247.235Y-49.73
X247.235Y-77.67
X249.775Y-49.73
X249.775Y-77.67
T4
X176.9Y-50.1
X176.9Y-52.64
X176.9Y-55.18
X176.9Y-57.72
X176.9Y-60.26
X176.9Y-62.8
X176.9Y-65.34
X176.9Y-67.88
X184.52Y-50.1
X184.52Y-52.64
X184.52Y-55.18
X184.52Y-57.72
X184.52Y-60.26
X184.52Y-62.8
X184.52Y-65.34
X184.52Y-67.88
X192.18Y-49.86
X192.18Y-52.4
X192.18Y-54.94
X192.18Y-57.48
X192.18Y-60.02
X192.18Y-62.56
X192.18Y-65.1
X192.18Y-67.64
X199.8Y-49.86
X199.8Y-52.4
X199.8Y-54.94
X199.8Y-57.48
X199.8Y-60.02
X199.8Y-62.56
X199.8Y-65.1
X199.8Y-67.64
T5
X177.6Y-73.16
X177.6Y-75.7
T6
X177.5Y-84.3
X177.56Y-80.7
X180.04Y-84.3
X180.1Y-80.7
X181.74Y-43.0
X182.58Y-84.3
X184.28Y-43.0
X186.82Y-43.0
X189.36Y-43.0
X191.9Y-43.0
X194.44Y-43.0
X196.98Y-43.0
X199.52Y-43.0
X202.06Y-43.0
X204.6Y-43.0
X214.22Y-52.2
X214.22Y-75.06
X216.76Y-52.2
X216.76Y-75.06
X219.3Y-52.2
X219.3Y-75.06
X221.84Y-52.2
X221.84Y-75.06
X224.38Y-52.2
X224.38Y-75.06
X226.92Y-52.2
X226.92Y-75.06
X229.46Y-52.2
X229.46Y-75.06
X232.0Y-52.2
X232.0Y-75.06
T7
X188.92Y-83.7
X194.0Y-83.7
X199.48Y-83.7
X204.56Y-83.7
X209.64Y-83.7
X209.72Y-43.9
X214.72Y-83.7
X214.8Y-43.9
X220.22Y-43.9
X220.22Y-83.7
X225.3Y-43.9
X225.3Y-83.7
X230.72Y-43.9
X230.72Y-83.7
X235.8Y-43.9
X235.8Y-83.7
X241.22Y-43.9
X241.22Y-83.7
X246.3Y-43.9
X246.3Y-83.7
X251.72Y-43.9
X251.72Y-83.7
X256.8Y-43.9
X256.8Y-83.7
T0
M30
