%TF.GenerationSoftware,KiCad,Pcbnew,(6.0.4)*%
%TF.CreationDate,2022-05-09T12:24:25+01:00*%
%TF.ProjectId,light_remote_controller,6c696768-745f-4726-956d-6f74655f636f,v0.1*%
%TF.SameCoordinates,Original*%
%TF.FileFunction,Legend,Top*%
%TF.FilePolarity,Positive*%
%FSLAX46Y46*%
G04 Gerber Fmt 4.6, Leading zero omitted, Abs format (unit mm)*
G04 Created by KiCad (PCBNEW (6.0.4)) date 2022-05-09 12:24:25*
%MOMM*%
%LPD*%
G01*
G04 APERTURE LIST*
G04 Aperture macros list*
%AMRoundRect*
0 Rectangle with rounded corners*
0 $1 Rounding radius*
0 $2 $3 $4 $5 $6 $7 $8 $9 X,Y pos of 4 corners*
0 Add a 4 corners polygon primitive as box body*
4,1,4,$2,$3,$4,$5,$6,$7,$8,$9,$2,$3,0*
0 Add four circle primitives for the rounded corners*
1,1,$1+$1,$2,$3*
1,1,$1+$1,$4,$5*
1,1,$1+$1,$6,$7*
1,1,$1+$1,$8,$9*
0 Add four rect primitives between the rounded corners*
20,1,$1+$1,$2,$3,$4,$5,0*
20,1,$1+$1,$4,$5,$6,$7,0*
20,1,$1+$1,$6,$7,$8,$9,0*
20,1,$1+$1,$8,$9,$2,$3,0*%
G04 Aperture macros list end*
%ADD10C,0.150000*%
%ADD11C,0.120000*%
%ADD12RoundRect,0.050000X-0.850000X0.850000X-0.850000X-0.850000X0.850000X-0.850000X0.850000X0.850000X0*%
%ADD13O,1.800000X1.800000*%
%ADD14RoundRect,0.300000X-0.450000X0.262500X-0.450000X-0.262500X0.450000X-0.262500X0.450000X0.262500X0*%
%ADD15RoundRect,0.050000X1.500000X1.500000X-1.500000X1.500000X-1.500000X-1.500000X1.500000X-1.500000X0*%
%ADD16C,3.100000*%
%ADD17RoundRect,0.300000X-0.262500X-0.450000X0.262500X-0.450000X0.262500X0.450000X-0.262500X0.450000X0*%
%ADD18RoundRect,0.050000X-1.500000X-1.500000X1.500000X-1.500000X1.500000X1.500000X-1.500000X1.500000X0*%
%ADD19RoundRect,0.300000X0.262500X0.450000X-0.262500X0.450000X-0.262500X-0.450000X0.262500X-0.450000X0*%
%ADD20RoundRect,0.050000X0.900000X-0.900000X0.900000X0.900000X-0.900000X0.900000X-0.900000X-0.900000X0*%
%ADD21C,1.900000*%
%ADD22RoundRect,0.050000X-1.200000X-0.800000X1.200000X-0.800000X1.200000X0.800000X-1.200000X0.800000X0*%
%ADD23O,2.500000X1.700000*%
%ADD24C,1.624000*%
%ADD25RoundRect,0.300000X0.450000X-0.262500X0.450000X0.262500X-0.450000X0.262500X-0.450000X-0.262500X0*%
%ADD26RoundRect,0.050000X-1.000000X1.000000X-1.000000X-1.000000X1.000000X-1.000000X1.000000X1.000000X0*%
%ADD27O,1.700000X2.100000*%
G04 APERTURE END LIST*
D10*
X178166666Y-87252380D02*
X178166666Y-86252380D01*
X178547619Y-86252380D01*
X178642857Y-86300000D01*
X178690476Y-86347619D01*
X178738095Y-86442857D01*
X178738095Y-86585714D01*
X178690476Y-86680952D01*
X178642857Y-86728571D01*
X178547619Y-86776190D01*
X178166666Y-86776190D01*
X179166666Y-87157142D02*
X179214285Y-87204761D01*
X179166666Y-87252380D01*
X179119047Y-87204761D01*
X179166666Y-87157142D01*
X179166666Y-87252380D01*
X180357142Y-87204761D02*
X180500000Y-87252380D01*
X180738095Y-87252380D01*
X180833333Y-87204761D01*
X180880952Y-87157142D01*
X180928571Y-87061904D01*
X180928571Y-86966666D01*
X180880952Y-86871428D01*
X180833333Y-86823809D01*
X180738095Y-86776190D01*
X180547619Y-86728571D01*
X180452380Y-86680952D01*
X180404761Y-86633333D01*
X180357142Y-86538095D01*
X180357142Y-86442857D01*
X180404761Y-86347619D01*
X180452380Y-86300000D01*
X180547619Y-86252380D01*
X180785714Y-86252380D01*
X180928571Y-86300000D01*
X181785714Y-87252380D02*
X181785714Y-86728571D01*
X181738095Y-86633333D01*
X181642857Y-86585714D01*
X181452380Y-86585714D01*
X181357142Y-86633333D01*
X181785714Y-87204761D02*
X181690476Y-87252380D01*
X181452380Y-87252380D01*
X181357142Y-87204761D01*
X181309523Y-87109523D01*
X181309523Y-87014285D01*
X181357142Y-86919047D01*
X181452380Y-86871428D01*
X181690476Y-86871428D01*
X181785714Y-86823809D01*
X182166666Y-86585714D02*
X182404761Y-87252380D01*
X182642857Y-86585714D01*
X183023809Y-87252380D02*
X183023809Y-86585714D01*
X183023809Y-86252380D02*
X182976190Y-86300000D01*
X183023809Y-86347619D01*
X183071428Y-86300000D01*
X183023809Y-86252380D01*
X183023809Y-86347619D01*
X183500000Y-86585714D02*
X183500000Y-87252380D01*
X183500000Y-86680952D02*
X183547619Y-86633333D01*
X183642857Y-86585714D01*
X183785714Y-86585714D01*
X183880952Y-86633333D01*
X183928571Y-86728571D01*
X183928571Y-87252380D01*
X184833333Y-86585714D02*
X184833333Y-87395238D01*
X184785714Y-87490476D01*
X184738095Y-87538095D01*
X184642857Y-87585714D01*
X184500000Y-87585714D01*
X184404761Y-87538095D01*
X184833333Y-87204761D02*
X184738095Y-87252380D01*
X184547619Y-87252380D01*
X184452380Y-87204761D01*
X184404761Y-87157142D01*
X184357142Y-87061904D01*
X184357142Y-86776190D01*
X184404761Y-86680952D01*
X184452380Y-86633333D01*
X184547619Y-86585714D01*
X184738095Y-86585714D01*
X184833333Y-86633333D01*
X180071428Y-40161904D02*
X180223809Y-40161904D01*
X180300000Y-40200000D01*
X180376190Y-40276190D01*
X180414285Y-40428571D01*
X180414285Y-40695238D01*
X180376190Y-40847619D01*
X180300000Y-40923809D01*
X180223809Y-40961904D01*
X180071428Y-40961904D01*
X179995238Y-40923809D01*
X179919047Y-40847619D01*
X179880952Y-40695238D01*
X179880952Y-40428571D01*
X179919047Y-40276190D01*
X179995238Y-40200000D01*
X180071428Y-40161904D01*
X180757142Y-40161904D02*
X180757142Y-40809523D01*
X180795238Y-40885714D01*
X180833333Y-40923809D01*
X180909523Y-40961904D01*
X181061904Y-40961904D01*
X181138095Y-40923809D01*
X181176190Y-40885714D01*
X181214285Y-40809523D01*
X181214285Y-40161904D01*
X181480952Y-40161904D02*
X181938095Y-40161904D01*
X181709523Y-40961904D02*
X181709523Y-40161904D01*
X182204761Y-40961904D02*
X182204761Y-40161904D01*
X182509523Y-40161904D01*
X182585714Y-40200000D01*
X182623809Y-40238095D01*
X182661904Y-40314285D01*
X182661904Y-40428571D01*
X182623809Y-40504761D01*
X182585714Y-40542857D01*
X182509523Y-40580952D01*
X182204761Y-40580952D01*
X183004761Y-40161904D02*
X183004761Y-40809523D01*
X183042857Y-40885714D01*
X183080952Y-40923809D01*
X183157142Y-40961904D01*
X183309523Y-40961904D01*
X183385714Y-40923809D01*
X183423809Y-40885714D01*
X183461904Y-40809523D01*
X183461904Y-40161904D01*
X183728571Y-40161904D02*
X184185714Y-40161904D01*
X183957142Y-40961904D02*
X183957142Y-40161904D01*
X184414285Y-40923809D02*
X184528571Y-40961904D01*
X184719047Y-40961904D01*
X184795238Y-40923809D01*
X184833333Y-40885714D01*
X184871428Y-40809523D01*
X184871428Y-40733333D01*
X184833333Y-40657142D01*
X184795238Y-40619047D01*
X184719047Y-40580952D01*
X184566666Y-40542857D01*
X184490476Y-40504761D01*
X184452380Y-40466666D01*
X184414285Y-40390476D01*
X184414285Y-40314285D01*
X184452380Y-40238095D01*
X184490476Y-40200000D01*
X184566666Y-40161904D01*
X184757142Y-40161904D01*
X184871428Y-40200000D01*
X185214285Y-40885714D02*
X185252380Y-40923809D01*
X185214285Y-40961904D01*
X185176190Y-40923809D01*
X185214285Y-40885714D01*
X185214285Y-40961904D01*
X185214285Y-40466666D02*
X185252380Y-40504761D01*
X185214285Y-40542857D01*
X185176190Y-40504761D01*
X185214285Y-40466666D01*
X185214285Y-40542857D01*
X186128571Y-40161904D02*
X186661904Y-40161904D01*
X186319047Y-40961904D01*
X187576190Y-40657142D02*
X188185714Y-40657142D01*
X189328571Y-40161904D02*
X189404761Y-40161904D01*
X189480952Y-40200000D01*
X189519047Y-40238095D01*
X189557142Y-40314285D01*
X189595238Y-40466666D01*
X189595238Y-40657142D01*
X189557142Y-40809523D01*
X189519047Y-40885714D01*
X189480952Y-40923809D01*
X189404761Y-40961904D01*
X189328571Y-40961904D01*
X189252380Y-40923809D01*
X189214285Y-40885714D01*
X189176190Y-40809523D01*
X189138095Y-40657142D01*
X189138095Y-40466666D01*
X189176190Y-40314285D01*
X189214285Y-40238095D01*
X189252380Y-40200000D01*
X189328571Y-40161904D01*
X189976190Y-40923809D02*
X189976190Y-40961904D01*
X189938095Y-41038095D01*
X189900000Y-41076190D01*
X191347619Y-40200000D02*
X191271428Y-40161904D01*
X191157142Y-40161904D01*
X191042857Y-40200000D01*
X190966666Y-40276190D01*
X190928571Y-40352380D01*
X190890476Y-40504761D01*
X190890476Y-40619047D01*
X190928571Y-40771428D01*
X190966666Y-40847619D01*
X191042857Y-40923809D01*
X191157142Y-40961904D01*
X191233333Y-40961904D01*
X191347619Y-40923809D01*
X191385714Y-40885714D01*
X191385714Y-40619047D01*
X191233333Y-40619047D01*
X191728571Y-40961904D02*
X191728571Y-40161904D01*
X192185714Y-40961904D01*
X192185714Y-40161904D01*
X192566666Y-40961904D02*
X192566666Y-40161904D01*
X192757142Y-40161904D01*
X192871428Y-40200000D01*
X192947619Y-40276190D01*
X192985714Y-40352380D01*
X193023809Y-40504761D01*
X193023809Y-40619047D01*
X192985714Y-40771428D01*
X192947619Y-40847619D01*
X192871428Y-40923809D01*
X192757142Y-40961904D01*
X192566666Y-40961904D01*
X193404761Y-40923809D02*
X193404761Y-40961904D01*
X193366666Y-41038095D01*
X193328571Y-41076190D01*
X194280952Y-40161904D02*
X194776190Y-40161904D01*
X194509523Y-40466666D01*
X194623809Y-40466666D01*
X194700000Y-40504761D01*
X194738095Y-40542857D01*
X194776190Y-40619047D01*
X194776190Y-40809523D01*
X194738095Y-40885714D01*
X194700000Y-40923809D01*
X194623809Y-40961904D01*
X194395238Y-40961904D01*
X194319047Y-40923809D01*
X194280952Y-40885714D01*
X195119047Y-40885714D02*
X195157142Y-40923809D01*
X195119047Y-40961904D01*
X195080952Y-40923809D01*
X195119047Y-40885714D01*
X195119047Y-40961904D01*
X195423809Y-40161904D02*
X195919047Y-40161904D01*
X195652380Y-40466666D01*
X195766666Y-40466666D01*
X195842857Y-40504761D01*
X195880952Y-40542857D01*
X195919047Y-40619047D01*
X195919047Y-40809523D01*
X195880952Y-40885714D01*
X195842857Y-40923809D01*
X195766666Y-40961904D01*
X195538095Y-40961904D01*
X195461904Y-40923809D01*
X195423809Y-40885714D01*
X182166666Y-81052380D02*
X182404761Y-82052380D01*
X182595238Y-81338095D01*
X182785714Y-82052380D01*
X183023809Y-81052380D01*
X183404761Y-82052380D02*
X183404761Y-81052380D01*
X184214285Y-81528571D02*
X183880952Y-81528571D01*
X183880952Y-82052380D02*
X183880952Y-81052380D01*
X184357142Y-81052380D01*
X184738095Y-82052380D02*
X184738095Y-81052380D01*
X184966666Y-85052380D02*
X184966666Y-85766666D01*
X184919047Y-85909523D01*
X184823809Y-86004761D01*
X184680952Y-86052380D01*
X184585714Y-86052380D01*
X185395238Y-85147619D02*
X185442857Y-85100000D01*
X185538095Y-85052380D01*
X185776190Y-85052380D01*
X185871428Y-85100000D01*
X185919047Y-85147619D01*
X185966666Y-85242857D01*
X185966666Y-85338095D01*
X185919047Y-85480952D01*
X185347619Y-86052380D01*
X185966666Y-86052380D01*
X203633333Y-72052380D02*
X203300000Y-71576190D01*
X203061904Y-72052380D02*
X203061904Y-71052380D01*
X203442857Y-71052380D01*
X203538095Y-71100000D01*
X203585714Y-71147619D01*
X203633333Y-71242857D01*
X203633333Y-71385714D01*
X203585714Y-71480952D01*
X203538095Y-71528571D01*
X203442857Y-71576190D01*
X203061904Y-71576190D01*
X204109523Y-72052380D02*
X204300000Y-72052380D01*
X204395238Y-72004761D01*
X204442857Y-71957142D01*
X204538095Y-71814285D01*
X204585714Y-71623809D01*
X204585714Y-71242857D01*
X204538095Y-71147619D01*
X204490476Y-71100000D01*
X204395238Y-71052380D01*
X204204761Y-71052380D01*
X204109523Y-71100000D01*
X204061904Y-71147619D01*
X204014285Y-71242857D01*
X204014285Y-71480952D01*
X204061904Y-71576190D01*
X204109523Y-71623809D01*
X204204761Y-71671428D01*
X204395238Y-71671428D01*
X204490476Y-71623809D01*
X204538095Y-71576190D01*
X204585714Y-71480952D01*
X203157142Y-62452380D02*
X202823809Y-61976190D01*
X202585714Y-62452380D02*
X202585714Y-61452380D01*
X202966666Y-61452380D01*
X203061904Y-61500000D01*
X203109523Y-61547619D01*
X203157142Y-61642857D01*
X203157142Y-61785714D01*
X203109523Y-61880952D01*
X203061904Y-61928571D01*
X202966666Y-61976190D01*
X202585714Y-61976190D01*
X204109523Y-62452380D02*
X203538095Y-62452380D01*
X203823809Y-62452380D02*
X203823809Y-61452380D01*
X203728571Y-61595238D01*
X203633333Y-61690476D01*
X203538095Y-61738095D01*
X204966666Y-61785714D02*
X204966666Y-62452380D01*
X204728571Y-61404761D02*
X204490476Y-62119047D01*
X205109523Y-62119047D01*
X220745833Y-67202380D02*
X220412500Y-66726190D01*
X220174404Y-67202380D02*
X220174404Y-66202380D01*
X220555357Y-66202380D01*
X220650595Y-66250000D01*
X220698214Y-66297619D01*
X220745833Y-66392857D01*
X220745833Y-66535714D01*
X220698214Y-66630952D01*
X220650595Y-66678571D01*
X220555357Y-66726190D01*
X220174404Y-66726190D01*
X221079166Y-66202380D02*
X221745833Y-66202380D01*
X221317261Y-67202380D01*
X203157142Y-59452380D02*
X202823809Y-58976190D01*
X202585714Y-59452380D02*
X202585714Y-58452380D01*
X202966666Y-58452380D01*
X203061904Y-58500000D01*
X203109523Y-58547619D01*
X203157142Y-58642857D01*
X203157142Y-58785714D01*
X203109523Y-58880952D01*
X203061904Y-58928571D01*
X202966666Y-58976190D01*
X202585714Y-58976190D01*
X204109523Y-59452380D02*
X203538095Y-59452380D01*
X203823809Y-59452380D02*
X203823809Y-58452380D01*
X203728571Y-58595238D01*
X203633333Y-58690476D01*
X203538095Y-58738095D01*
X205014285Y-58452380D02*
X204538095Y-58452380D01*
X204490476Y-58928571D01*
X204538095Y-58880952D01*
X204633333Y-58833333D01*
X204871428Y-58833333D01*
X204966666Y-58880952D01*
X205014285Y-58928571D01*
X205061904Y-59023809D01*
X205061904Y-59261904D01*
X205014285Y-59357142D01*
X204966666Y-59404761D01*
X204871428Y-59452380D01*
X204633333Y-59452380D01*
X204538095Y-59404761D01*
X204490476Y-59357142D01*
X175461904Y-78152380D02*
X175461904Y-77152380D01*
X175700000Y-77152380D01*
X175842857Y-77200000D01*
X175938095Y-77295238D01*
X175985714Y-77390476D01*
X176033333Y-77580952D01*
X176033333Y-77723809D01*
X175985714Y-77914285D01*
X175938095Y-78009523D01*
X175842857Y-78104761D01*
X175700000Y-78152380D01*
X175461904Y-78152380D01*
X176985714Y-78152380D02*
X176414285Y-78152380D01*
X176700000Y-78152380D02*
X176700000Y-77152380D01*
X176604761Y-77295238D01*
X176509523Y-77390476D01*
X176414285Y-77438095D01*
X183433333Y-71952380D02*
X183100000Y-71476190D01*
X182861904Y-71952380D02*
X182861904Y-70952380D01*
X183242857Y-70952380D01*
X183338095Y-71000000D01*
X183385714Y-71047619D01*
X183433333Y-71142857D01*
X183433333Y-71285714D01*
X183385714Y-71380952D01*
X183338095Y-71428571D01*
X183242857Y-71476190D01*
X182861904Y-71476190D01*
X184385714Y-71952380D02*
X183814285Y-71952380D01*
X184100000Y-71952380D02*
X184100000Y-70952380D01*
X184004761Y-71095238D01*
X183909523Y-71190476D01*
X183814285Y-71238095D01*
X186338095Y-48652380D02*
X186338095Y-49461904D01*
X186385714Y-49557142D01*
X186433333Y-49604761D01*
X186528571Y-49652380D01*
X186719047Y-49652380D01*
X186814285Y-49604761D01*
X186861904Y-49557142D01*
X186909523Y-49461904D01*
X186909523Y-48652380D01*
X187814285Y-48985714D02*
X187814285Y-49652380D01*
X187576190Y-48604761D02*
X187338095Y-49319047D01*
X187957142Y-49319047D01*
X191633333Y-75552380D02*
X191300000Y-75076190D01*
X191061904Y-75552380D02*
X191061904Y-74552380D01*
X191442857Y-74552380D01*
X191538095Y-74600000D01*
X191585714Y-74647619D01*
X191633333Y-74742857D01*
X191633333Y-74885714D01*
X191585714Y-74980952D01*
X191538095Y-75028571D01*
X191442857Y-75076190D01*
X191061904Y-75076190D01*
X192204761Y-74980952D02*
X192109523Y-74933333D01*
X192061904Y-74885714D01*
X192014285Y-74790476D01*
X192014285Y-74742857D01*
X192061904Y-74647619D01*
X192109523Y-74600000D01*
X192204761Y-74552380D01*
X192395238Y-74552380D01*
X192490476Y-74600000D01*
X192538095Y-74647619D01*
X192585714Y-74742857D01*
X192585714Y-74790476D01*
X192538095Y-74885714D01*
X192490476Y-74933333D01*
X192395238Y-74980952D01*
X192204761Y-74980952D01*
X192109523Y-75028571D01*
X192061904Y-75076190D01*
X192014285Y-75171428D01*
X192014285Y-75361904D01*
X192061904Y-75457142D01*
X192109523Y-75504761D01*
X192204761Y-75552380D01*
X192395238Y-75552380D01*
X192490476Y-75504761D01*
X192538095Y-75457142D01*
X192585714Y-75361904D01*
X192585714Y-75171428D01*
X192538095Y-75076190D01*
X192490476Y-75028571D01*
X192395238Y-74980952D01*
X228272380Y-64461904D02*
X229081904Y-64461904D01*
X229177142Y-64414285D01*
X229224761Y-64366666D01*
X229272380Y-64271428D01*
X229272380Y-64080952D01*
X229224761Y-63985714D01*
X229177142Y-63938095D01*
X229081904Y-63890476D01*
X228272380Y-63890476D01*
X229272380Y-62890476D02*
X229272380Y-63461904D01*
X229272380Y-63176190D02*
X228272380Y-63176190D01*
X228415238Y-63271428D01*
X228510476Y-63366666D01*
X228558095Y-63461904D01*
X187357142Y-71952380D02*
X187023809Y-71476190D01*
X186785714Y-71952380D02*
X186785714Y-70952380D01*
X187166666Y-70952380D01*
X187261904Y-71000000D01*
X187309523Y-71047619D01*
X187357142Y-71142857D01*
X187357142Y-71285714D01*
X187309523Y-71380952D01*
X187261904Y-71428571D01*
X187166666Y-71476190D01*
X186785714Y-71476190D01*
X188309523Y-71952380D02*
X187738095Y-71952380D01*
X188023809Y-71952380D02*
X188023809Y-70952380D01*
X187928571Y-71095238D01*
X187833333Y-71190476D01*
X187738095Y-71238095D01*
X189166666Y-70952380D02*
X188976190Y-70952380D01*
X188880952Y-71000000D01*
X188833333Y-71047619D01*
X188738095Y-71190476D01*
X188690476Y-71380952D01*
X188690476Y-71761904D01*
X188738095Y-71857142D01*
X188785714Y-71904761D01*
X188880952Y-71952380D01*
X189071428Y-71952380D01*
X189166666Y-71904761D01*
X189214285Y-71857142D01*
X189261904Y-71761904D01*
X189261904Y-71523809D01*
X189214285Y-71428571D01*
X189166666Y-71380952D01*
X189071428Y-71333333D01*
X188880952Y-71333333D01*
X188785714Y-71380952D01*
X188738095Y-71428571D01*
X188690476Y-71523809D01*
X203157142Y-65752380D02*
X202823809Y-65276190D01*
X202585714Y-65752380D02*
X202585714Y-64752380D01*
X202966666Y-64752380D01*
X203061904Y-64800000D01*
X203109523Y-64847619D01*
X203157142Y-64942857D01*
X203157142Y-65085714D01*
X203109523Y-65180952D01*
X203061904Y-65228571D01*
X202966666Y-65276190D01*
X202585714Y-65276190D01*
X204109523Y-65752380D02*
X203538095Y-65752380D01*
X203823809Y-65752380D02*
X203823809Y-64752380D01*
X203728571Y-64895238D01*
X203633333Y-64990476D01*
X203538095Y-65038095D01*
X204442857Y-64752380D02*
X205061904Y-64752380D01*
X204728571Y-65133333D01*
X204871428Y-65133333D01*
X204966666Y-65180952D01*
X205014285Y-65228571D01*
X205061904Y-65323809D01*
X205061904Y-65561904D01*
X205014285Y-65657142D01*
X204966666Y-65704761D01*
X204871428Y-65752380D01*
X204585714Y-65752380D01*
X204490476Y-65704761D01*
X204442857Y-65657142D01*
X220720833Y-61602380D02*
X220387500Y-61126190D01*
X220149404Y-61602380D02*
X220149404Y-60602380D01*
X220530357Y-60602380D01*
X220625595Y-60650000D01*
X220673214Y-60697619D01*
X220720833Y-60792857D01*
X220720833Y-60935714D01*
X220673214Y-61030952D01*
X220625595Y-61078571D01*
X220530357Y-61126190D01*
X220149404Y-61126190D01*
X221577976Y-60935714D02*
X221577976Y-61602380D01*
X221339880Y-60554761D02*
X221101785Y-61269047D01*
X221720833Y-61269047D01*
X182490476Y-78952380D02*
X182490476Y-79666666D01*
X182442857Y-79809523D01*
X182347619Y-79904761D01*
X182204761Y-79952380D01*
X182109523Y-79952380D01*
X183490476Y-79952380D02*
X182919047Y-79952380D01*
X183204761Y-79952380D02*
X183204761Y-78952380D01*
X183109523Y-79095238D01*
X183014285Y-79190476D01*
X182919047Y-79238095D01*
X183871428Y-79047619D02*
X183919047Y-79000000D01*
X184014285Y-78952380D01*
X184252380Y-78952380D01*
X184347619Y-79000000D01*
X184395238Y-79047619D01*
X184442857Y-79142857D01*
X184442857Y-79238095D01*
X184395238Y-79380952D01*
X183823809Y-79952380D01*
X184442857Y-79952380D01*
X178466666Y-41052380D02*
X178466666Y-41766666D01*
X178419047Y-41909523D01*
X178323809Y-42004761D01*
X178180952Y-42052380D01*
X178085714Y-42052380D01*
X179466666Y-42052380D02*
X178895238Y-42052380D01*
X179180952Y-42052380D02*
X179180952Y-41052380D01*
X179085714Y-41195238D01*
X178990476Y-41290476D01*
X178895238Y-41338095D01*
X207038095Y-75052380D02*
X207038095Y-75861904D01*
X207085714Y-75957142D01*
X207133333Y-76004761D01*
X207228571Y-76052380D01*
X207419047Y-76052380D01*
X207514285Y-76004761D01*
X207561904Y-75957142D01*
X207609523Y-75861904D01*
X207609523Y-75052380D01*
X208038095Y-75147619D02*
X208085714Y-75100000D01*
X208180952Y-75052380D01*
X208419047Y-75052380D01*
X208514285Y-75100000D01*
X208561904Y-75147619D01*
X208609523Y-75242857D01*
X208609523Y-75338095D01*
X208561904Y-75480952D01*
X207990476Y-76052380D01*
X208609523Y-76052380D01*
X203157142Y-68852380D02*
X202823809Y-68376190D01*
X202585714Y-68852380D02*
X202585714Y-67852380D01*
X202966666Y-67852380D01*
X203061904Y-67900000D01*
X203109523Y-67947619D01*
X203157142Y-68042857D01*
X203157142Y-68185714D01*
X203109523Y-68280952D01*
X203061904Y-68328571D01*
X202966666Y-68376190D01*
X202585714Y-68376190D01*
X204109523Y-68852380D02*
X203538095Y-68852380D01*
X203823809Y-68852380D02*
X203823809Y-67852380D01*
X203728571Y-67995238D01*
X203633333Y-68090476D01*
X203538095Y-68138095D01*
X204490476Y-67947619D02*
X204538095Y-67900000D01*
X204633333Y-67852380D01*
X204871428Y-67852380D01*
X204966666Y-67900000D01*
X205014285Y-67947619D01*
X205061904Y-68042857D01*
X205061904Y-68138095D01*
X205014285Y-68280952D01*
X204442857Y-68852380D01*
X205061904Y-68852380D01*
X177620833Y-45202380D02*
X177287500Y-44726190D01*
X177049404Y-45202380D02*
X177049404Y-44202380D01*
X177430357Y-44202380D01*
X177525595Y-44250000D01*
X177573214Y-44297619D01*
X177620833Y-44392857D01*
X177620833Y-44535714D01*
X177573214Y-44630952D01*
X177525595Y-44678571D01*
X177430357Y-44726190D01*
X177049404Y-44726190D01*
X178001785Y-44297619D02*
X178049404Y-44250000D01*
X178144642Y-44202380D01*
X178382738Y-44202380D01*
X178477976Y-44250000D01*
X178525595Y-44297619D01*
X178573214Y-44392857D01*
X178573214Y-44488095D01*
X178525595Y-44630952D01*
X177954166Y-45202380D01*
X178573214Y-45202380D01*
X194957142Y-75652380D02*
X194623809Y-75176190D01*
X194385714Y-75652380D02*
X194385714Y-74652380D01*
X194766666Y-74652380D01*
X194861904Y-74700000D01*
X194909523Y-74747619D01*
X194957142Y-74842857D01*
X194957142Y-74985714D01*
X194909523Y-75080952D01*
X194861904Y-75128571D01*
X194766666Y-75176190D01*
X194385714Y-75176190D01*
X195909523Y-75652380D02*
X195338095Y-75652380D01*
X195623809Y-75652380D02*
X195623809Y-74652380D01*
X195528571Y-74795238D01*
X195433333Y-74890476D01*
X195338095Y-74938095D01*
X196861904Y-75652380D02*
X196290476Y-75652380D01*
X196576190Y-75652380D02*
X196576190Y-74652380D01*
X196480952Y-74795238D01*
X196385714Y-74890476D01*
X196290476Y-74938095D01*
X198957142Y-76352380D02*
X198623809Y-75876190D01*
X198385714Y-76352380D02*
X198385714Y-75352380D01*
X198766666Y-75352380D01*
X198861904Y-75400000D01*
X198909523Y-75447619D01*
X198957142Y-75542857D01*
X198957142Y-75685714D01*
X198909523Y-75780952D01*
X198861904Y-75828571D01*
X198766666Y-75876190D01*
X198385714Y-75876190D01*
X199909523Y-76352380D02*
X199338095Y-76352380D01*
X199623809Y-76352380D02*
X199623809Y-75352380D01*
X199528571Y-75495238D01*
X199433333Y-75590476D01*
X199338095Y-75638095D01*
X200528571Y-75352380D02*
X200623809Y-75352380D01*
X200719047Y-75400000D01*
X200766666Y-75447619D01*
X200814285Y-75542857D01*
X200861904Y-75733333D01*
X200861904Y-75971428D01*
X200814285Y-76161904D01*
X200766666Y-76257142D01*
X200719047Y-76304761D01*
X200623809Y-76352380D01*
X200528571Y-76352380D01*
X200433333Y-76304761D01*
X200385714Y-76257142D01*
X200338095Y-76161904D01*
X200290476Y-75971428D01*
X200290476Y-75733333D01*
X200338095Y-75542857D01*
X200385714Y-75447619D01*
X200433333Y-75400000D01*
X200528571Y-75352380D01*
X192938095Y-46752380D02*
X192938095Y-47561904D01*
X192985714Y-47657142D01*
X193033333Y-47704761D01*
X193128571Y-47752380D01*
X193319047Y-47752380D01*
X193414285Y-47704761D01*
X193461904Y-47657142D01*
X193509523Y-47561904D01*
X193509523Y-46752380D01*
X193890476Y-46752380D02*
X194509523Y-46752380D01*
X194176190Y-47133333D01*
X194319047Y-47133333D01*
X194414285Y-47180952D01*
X194461904Y-47228571D01*
X194509523Y-47323809D01*
X194509523Y-47561904D01*
X194461904Y-47657142D01*
X194414285Y-47704761D01*
X194319047Y-47752380D01*
X194033333Y-47752380D01*
X193938095Y-47704761D01*
X193890476Y-47657142D01*
X204033333Y-56452380D02*
X203700000Y-55976190D01*
X203461904Y-56452380D02*
X203461904Y-55452380D01*
X203842857Y-55452380D01*
X203938095Y-55500000D01*
X203985714Y-55547619D01*
X204033333Y-55642857D01*
X204033333Y-55785714D01*
X203985714Y-55880952D01*
X203938095Y-55928571D01*
X203842857Y-55976190D01*
X203461904Y-55976190D01*
X204366666Y-55452380D02*
X204985714Y-55452380D01*
X204652380Y-55833333D01*
X204795238Y-55833333D01*
X204890476Y-55880952D01*
X204938095Y-55928571D01*
X204985714Y-56023809D01*
X204985714Y-56261904D01*
X204938095Y-56357142D01*
X204890476Y-56404761D01*
X204795238Y-56452380D01*
X204509523Y-56452380D01*
X204414285Y-56404761D01*
X204366666Y-56357142D01*
X182944642Y-75302380D02*
X182611309Y-74826190D01*
X182373214Y-75302380D02*
X182373214Y-74302380D01*
X182754166Y-74302380D01*
X182849404Y-74350000D01*
X182897023Y-74397619D01*
X182944642Y-74492857D01*
X182944642Y-74635714D01*
X182897023Y-74730952D01*
X182849404Y-74778571D01*
X182754166Y-74826190D01*
X182373214Y-74826190D01*
X183897023Y-75302380D02*
X183325595Y-75302380D01*
X183611309Y-75302380D02*
X183611309Y-74302380D01*
X183516071Y-74445238D01*
X183420833Y-74540476D01*
X183325595Y-74588095D01*
X184230357Y-74302380D02*
X184897023Y-74302380D01*
X184468452Y-75302380D01*
D11*
X181310000Y-82970000D02*
X176170000Y-82970000D01*
X176170000Y-82970000D02*
X176170000Y-85630000D01*
X181310000Y-82970000D02*
X181310000Y-85630000D01*
X182580000Y-82970000D02*
X183910000Y-82970000D01*
X183910000Y-82970000D02*
X183910000Y-84300000D01*
X181310000Y-85630000D02*
X176170000Y-85630000D01*
X201165000Y-72485436D02*
X201165000Y-72939564D01*
X202635000Y-72485436D02*
X202635000Y-72939564D01*
X259340000Y-40090000D02*
X249180000Y-40090000D01*
X249180000Y-41360000D02*
X259340000Y-41360000D01*
X249180000Y-40090000D02*
X249180000Y-47710000D01*
X259340000Y-47710000D02*
X259340000Y-40090000D01*
X249180000Y-47710000D02*
X259340000Y-47710000D01*
X206672936Y-63235000D02*
X207127064Y-63235000D01*
X206672936Y-61765000D02*
X207127064Y-61765000D01*
X196540000Y-79890000D02*
X186380000Y-79890000D01*
X196540000Y-87510000D02*
X196540000Y-79890000D01*
X186380000Y-87510000D02*
X196540000Y-87510000D01*
X186380000Y-79890000D02*
X186380000Y-87510000D01*
X196540000Y-86240000D02*
X186380000Y-86240000D01*
X221139564Y-65835000D02*
X220685436Y-65835000D01*
X221139564Y-64365000D02*
X220685436Y-64365000D01*
X206672936Y-59935000D02*
X207127064Y-59935000D01*
X206672936Y-58465000D02*
X207127064Y-58465000D01*
X176364000Y-75990000D02*
X176520000Y-75990000D01*
X178680000Y-75990000D02*
X178836000Y-75990000D01*
X178680000Y-75470961D02*
G75*
G03*
X178679837Y-73388870I-1080000J1040961D01*
G01*
X176521392Y-72757665D02*
G75*
G03*
X176364484Y-75990000I1078608J-1672335D01*
G01*
X176520163Y-73388870D02*
G75*
G03*
X176520000Y-75470961I1079837J-1041130D01*
G01*
X178835516Y-75990000D02*
G75*
G03*
X178678608Y-72757665I-1235516J1560000D01*
G01*
X207180000Y-40090000D02*
X207180000Y-47710000D01*
X217340000Y-40090000D02*
X207180000Y-40090000D01*
X217340000Y-47710000D02*
X217340000Y-40090000D01*
X207180000Y-47710000D02*
X217340000Y-47710000D01*
X207180000Y-41360000D02*
X217340000Y-41360000D01*
X183839564Y-72465000D02*
X183385436Y-72465000D01*
X183839564Y-73935000D02*
X183385436Y-73935000D01*
X175460000Y-48710000D02*
X175460000Y-69270000D01*
X175460000Y-69270000D02*
X185960000Y-69270000D01*
X178460000Y-69210000D02*
X182960000Y-69210000D01*
X178460000Y-48770000D02*
X178460000Y-69210000D01*
X182960000Y-48770000D02*
X181710000Y-48770000D01*
X179710000Y-48770000D02*
X178460000Y-48770000D01*
X185960000Y-48710000D02*
X175460000Y-48710000D01*
X182960000Y-69210000D02*
X182960000Y-48770000D01*
X185960000Y-69270000D02*
X185960000Y-48710000D01*
X179710000Y-48770000D02*
G75*
G03*
X181710000Y-48770000I1000000J0D01*
G01*
X248840000Y-79890000D02*
X238680000Y-79890000D01*
X248840000Y-87510000D02*
X248840000Y-79890000D01*
X238680000Y-87510000D02*
X248840000Y-87510000D01*
X238680000Y-79890000D02*
X238680000Y-87510000D01*
X248840000Y-86240000D02*
X238680000Y-86240000D01*
X192735000Y-72485436D02*
X192735000Y-72939564D01*
X191265000Y-72485436D02*
X191265000Y-72939564D01*
D10*
X254220000Y-61160000D02*
X258030000Y-61160000D01*
X251820000Y-57700000D02*
X251820000Y-69700000D01*
X207230000Y-59890000D02*
X200880000Y-59890000D01*
X258030000Y-58620000D02*
X258030000Y-59890000D01*
X252950000Y-58620000D02*
X258030000Y-58620000D01*
X254220000Y-63700000D02*
X258030000Y-63700000D01*
X207230000Y-67510000D02*
X207230000Y-59890000D01*
X258030000Y-66240000D02*
X258030000Y-70050000D01*
X252950000Y-66240000D02*
X252950000Y-58620000D01*
X237820000Y-57700000D02*
X251820000Y-57700000D01*
X200880000Y-67510000D02*
X207230000Y-67510000D01*
X258030000Y-64970000D02*
X254220000Y-64970000D01*
X237820000Y-69700000D02*
X237820000Y-57700000D01*
X200880000Y-59890000D02*
X200880000Y-67510000D01*
X259320000Y-48950000D02*
X259320000Y-48450000D01*
X254220000Y-62430000D02*
X254220000Y-63700000D01*
X202320000Y-48450000D02*
X202320000Y-78950000D01*
X259320000Y-48450000D02*
X202320000Y-48450000D01*
X254220000Y-66240000D02*
X258030000Y-66240000D01*
X258030000Y-59890000D02*
X254220000Y-59890000D01*
X259320000Y-78950000D02*
X259320000Y-48950000D01*
X254220000Y-59890000D02*
X254220000Y-61160000D01*
X202320000Y-78950000D02*
X259320000Y-78950000D01*
X254220000Y-64970000D02*
X254220000Y-66240000D01*
X258030000Y-62430000D02*
X254220000Y-62430000D01*
X258030000Y-63700000D02*
X258030000Y-64970000D01*
X258030000Y-61160000D02*
X258030000Y-62430000D01*
X251820000Y-69700000D02*
X237820000Y-69700000D01*
X258556051Y-51000000D02*
G75*
G03*
X258556051Y-51000000I-1796051J0D01*
G01*
X206486051Y-51000000D02*
G75*
G03*
X206486051Y-51000000I-1796051J0D01*
G01*
X258556051Y-76400000D02*
G75*
G03*
X258556051Y-76400000I-1796051J0D01*
G01*
X206486051Y-76400000D02*
G75*
G03*
X206486051Y-76400000I-1796051J0D01*
G01*
D11*
X188735000Y-74139564D02*
X188735000Y-73685436D01*
X187265000Y-74139564D02*
X187265000Y-73685436D01*
X206672936Y-65065000D02*
X207127064Y-65065000D01*
X206672936Y-66535000D02*
X207127064Y-66535000D01*
X217680000Y-40090000D02*
X217680000Y-47710000D01*
X217680000Y-47710000D02*
X227840000Y-47710000D01*
X227840000Y-40090000D02*
X217680000Y-40090000D01*
X217680000Y-41360000D02*
X227840000Y-41360000D01*
X227840000Y-47710000D02*
X227840000Y-40090000D01*
X221114564Y-60235000D02*
X220660436Y-60235000D01*
X221114564Y-58765000D02*
X220660436Y-58765000D01*
X217680000Y-79890000D02*
X217680000Y-87510000D01*
X227840000Y-86240000D02*
X217680000Y-86240000D01*
X227840000Y-87510000D02*
X227840000Y-79890000D01*
X227840000Y-79890000D02*
X217680000Y-79890000D01*
X217680000Y-87510000D02*
X227840000Y-87510000D01*
X228180000Y-47710000D02*
X238340000Y-47710000D01*
X228180000Y-40090000D02*
X228180000Y-47710000D01*
X238340000Y-40090000D02*
X228180000Y-40090000D01*
X238340000Y-47710000D02*
X238340000Y-40090000D01*
X228180000Y-41360000D02*
X238340000Y-41360000D01*
X180100000Y-79370000D02*
X181430000Y-79370000D01*
X176230000Y-79370000D02*
X176230000Y-82030000D01*
X178830000Y-82030000D02*
X176230000Y-82030000D01*
X178830000Y-79370000D02*
X176230000Y-79370000D01*
X181430000Y-79370000D02*
X181430000Y-80700000D01*
X178830000Y-79370000D02*
X178830000Y-82030000D01*
X203330000Y-41670000D02*
X180410000Y-41670000D01*
X180410000Y-41670000D02*
X180410000Y-44330000D01*
X203330000Y-44330000D02*
X180410000Y-44330000D01*
X203330000Y-41670000D02*
X203330000Y-44330000D01*
X204600000Y-41670000D02*
X205930000Y-41670000D01*
X205930000Y-41670000D02*
X205930000Y-43000000D01*
X212780000Y-50700000D02*
X238210000Y-50700000D01*
X212780000Y-50700000D02*
X212780000Y-53240000D01*
X240340000Y-74440000D02*
X240340000Y-52830000D01*
X212780000Y-53240000D02*
X205880000Y-53240000D01*
X205880000Y-76560000D02*
X238210000Y-76560000D01*
X205880000Y-53240000D02*
X205880000Y-76560000D01*
X238210000Y-76560000D02*
G75*
G03*
X240340000Y-74430000I0J2130000D01*
G01*
X240340000Y-52830000D02*
G75*
G03*
X238210000Y-50700000I-2130002J-2D01*
G01*
G36*
X232000000Y-50295000D02*
G01*
X231365000Y-49660000D01*
X232635000Y-49660000D01*
X232000000Y-50295000D01*
G37*
D10*
X232000000Y-50295000D02*
X231365000Y-49660000D01*
X232635000Y-49660000D01*
X232000000Y-50295000D01*
D11*
X259340000Y-79890000D02*
X249180000Y-79890000D01*
X249180000Y-79890000D02*
X249180000Y-87510000D01*
X249180000Y-87510000D02*
X259340000Y-87510000D01*
X259340000Y-87510000D02*
X259340000Y-79890000D01*
X259340000Y-86240000D02*
X249180000Y-86240000D01*
X238340000Y-79890000D02*
X228180000Y-79890000D01*
X228180000Y-87510000D02*
X238340000Y-87510000D01*
X238340000Y-86240000D02*
X228180000Y-86240000D01*
X238340000Y-87510000D02*
X238340000Y-79890000D01*
X228180000Y-79890000D02*
X228180000Y-87510000D01*
X206685436Y-68365000D02*
X207139564Y-68365000D01*
X206685436Y-69835000D02*
X207139564Y-69835000D01*
X177560436Y-47135000D02*
X178014564Y-47135000D01*
X177560436Y-45665000D02*
X178014564Y-45665000D01*
X194565000Y-72485436D02*
X194565000Y-72939564D01*
X196035000Y-72485436D02*
X196035000Y-72939564D01*
X248840000Y-40090000D02*
X238680000Y-40090000D01*
X248840000Y-47710000D02*
X248840000Y-40090000D01*
X238680000Y-41360000D02*
X248840000Y-41360000D01*
X238680000Y-40090000D02*
X238680000Y-47710000D01*
X238680000Y-47710000D02*
X248840000Y-47710000D01*
X199335000Y-72485436D02*
X199335000Y-72939564D01*
X197865000Y-72485436D02*
X197865000Y-72939564D01*
X198240000Y-68970000D02*
X198240000Y-48530000D01*
X201240000Y-69030000D02*
X201240000Y-48470000D01*
X198240000Y-48530000D02*
X196990000Y-48530000D01*
X190740000Y-69030000D02*
X201240000Y-69030000D01*
X201240000Y-48470000D02*
X190740000Y-48470000D01*
X194990000Y-48530000D02*
X193740000Y-48530000D01*
X193740000Y-48530000D02*
X193740000Y-68970000D01*
X193740000Y-68970000D02*
X198240000Y-68970000D01*
X190740000Y-48470000D02*
X190740000Y-69030000D01*
X194990000Y-48530000D02*
G75*
G03*
X196990000Y-48530000I1000000J0D01*
G01*
X206672936Y-55165000D02*
X207127064Y-55165000D01*
X206672936Y-56635000D02*
X207127064Y-56635000D01*
X183360436Y-75765000D02*
X183814564Y-75765000D01*
X183360436Y-77235000D02*
X183814564Y-77235000D01*
X196940000Y-87510000D02*
X217260000Y-87510000D01*
X217260000Y-86240000D02*
X196940000Y-86240000D01*
X217260000Y-87510000D02*
X217260000Y-79890000D01*
X196940000Y-79890000D02*
X217260000Y-79890000D01*
X196940000Y-79890000D02*
X196940000Y-87510000D01*
%LPC*%
D12*
X182580000Y-84300000D03*
D13*
X180040000Y-84300000D03*
X177500000Y-84300000D03*
D14*
X201900000Y-71800000D03*
X201900000Y-73625000D03*
D15*
X256800000Y-43900000D03*
D16*
X251720000Y-43900000D03*
D17*
X205987500Y-62500000D03*
X207812500Y-62500000D03*
D18*
X188920000Y-83700000D03*
D16*
X194000000Y-83700000D03*
D19*
X221825000Y-65100000D03*
X220000000Y-65100000D03*
D17*
X205987500Y-59200000D03*
X207812500Y-59200000D03*
D20*
X177600000Y-75700000D03*
D21*
X177600000Y-73160000D03*
D15*
X214800000Y-43900000D03*
D16*
X209720000Y-43900000D03*
D19*
X184525000Y-73200000D03*
X182700000Y-73200000D03*
D22*
X176900000Y-50100000D03*
D23*
X176900000Y-52640000D03*
X176900000Y-55180000D03*
X176900000Y-57720000D03*
X176900000Y-60260000D03*
X176900000Y-62800000D03*
X176900000Y-65340000D03*
X176900000Y-67880000D03*
X184520000Y-67880000D03*
X184520000Y-65340000D03*
X184520000Y-62800000D03*
X184520000Y-60260000D03*
X184520000Y-57720000D03*
X184520000Y-55180000D03*
X184520000Y-52640000D03*
X184520000Y-50100000D03*
D18*
X241220000Y-83700000D03*
D16*
X246300000Y-83700000D03*
D14*
X192000000Y-71800000D03*
X192000000Y-73625000D03*
D24*
X249775000Y-49730000D03*
X247235000Y-49730000D03*
X244695000Y-49730000D03*
X242155000Y-49730000D03*
X239615000Y-49730000D03*
X237075000Y-49730000D03*
X234535000Y-49730000D03*
X231995000Y-49730000D03*
X229455000Y-49730000D03*
X226915000Y-49730000D03*
X224375000Y-49730000D03*
X221835000Y-49730000D03*
X219295000Y-49730000D03*
X216755000Y-49730000D03*
X214215000Y-49730000D03*
X214215000Y-77670000D03*
X216755000Y-77670000D03*
X219295000Y-77670000D03*
X221835000Y-77670000D03*
X224375000Y-77670000D03*
X226915000Y-77670000D03*
X229455000Y-77670000D03*
X231995000Y-77670000D03*
X234535000Y-77670000D03*
X237075000Y-77670000D03*
X239615000Y-77670000D03*
X242155000Y-77670000D03*
X244695000Y-77670000D03*
X247235000Y-77670000D03*
X249775000Y-77670000D03*
D25*
X188000000Y-74825000D03*
X188000000Y-73000000D03*
D17*
X205987500Y-65800000D03*
X207812500Y-65800000D03*
D15*
X225300000Y-43900000D03*
D16*
X220220000Y-43900000D03*
D19*
X221800000Y-59500000D03*
X219975000Y-59500000D03*
D18*
X220220000Y-83700000D03*
D16*
X225300000Y-83700000D03*
D15*
X235800000Y-43900000D03*
D16*
X230720000Y-43900000D03*
D12*
X180100000Y-80700000D03*
D13*
X177560000Y-80700000D03*
D12*
X204600000Y-43000000D03*
D13*
X202060000Y-43000000D03*
X199520000Y-43000000D03*
X196980000Y-43000000D03*
X194440000Y-43000000D03*
X191900000Y-43000000D03*
X189360000Y-43000000D03*
X186820000Y-43000000D03*
X184280000Y-43000000D03*
X181740000Y-43000000D03*
D26*
X232000000Y-52200000D03*
D27*
X229460000Y-52200000D03*
X226920000Y-52200000D03*
X224380000Y-52200000D03*
X221840000Y-52200000D03*
X219300000Y-52200000D03*
X216760000Y-52200000D03*
X214220000Y-52200000D03*
X214220000Y-75060000D03*
X216760000Y-75060000D03*
X219300000Y-75060000D03*
X221840000Y-75060000D03*
X224380000Y-75060000D03*
X226920000Y-75060000D03*
X229460000Y-75060000D03*
X232000000Y-75060000D03*
D18*
X251720000Y-83700000D03*
D16*
X256800000Y-83700000D03*
D18*
X230720000Y-83700000D03*
D16*
X235800000Y-83700000D03*
D17*
X206000000Y-69100000D03*
X207825000Y-69100000D03*
X176875000Y-46400000D03*
X178700000Y-46400000D03*
D14*
X195300000Y-71800000D03*
X195300000Y-73625000D03*
D15*
X246300000Y-43900000D03*
D16*
X241220000Y-43900000D03*
D14*
X198600000Y-71800000D03*
X198600000Y-73625000D03*
D22*
X192180000Y-49860000D03*
D23*
X192180000Y-52400000D03*
X192180000Y-54940000D03*
X192180000Y-57480000D03*
X192180000Y-60020000D03*
X192180000Y-62560000D03*
X192180000Y-65100000D03*
X192180000Y-67640000D03*
X199800000Y-67640000D03*
X199800000Y-65100000D03*
X199800000Y-62560000D03*
X199800000Y-60020000D03*
X199800000Y-57480000D03*
X199800000Y-54940000D03*
X199800000Y-52400000D03*
X199800000Y-49860000D03*
D17*
X205987500Y-55900000D03*
X207812500Y-55900000D03*
X182675000Y-76500000D03*
X184500000Y-76500000D03*
D18*
X199480000Y-83700000D03*
D16*
X204560000Y-83700000D03*
X209640000Y-83700000D03*
X214720000Y-83700000D03*
M02*
