%FSLAX45Y45*%
G04 Gerber Fmt 4.5, Leading zero omitted, Abs format (unit mm)*
G04 Created by KiCad (PCBNEW (6.0.4)) date 2022-05-09 12:24:42*
%MOMM*%
%LPD*%
G01*
G04 APERTURE LIST*
%TA.AperFunction,Profile*%
%ADD10C,0.200000*%
%TD*%
%ADD11C,0.200000*%
G04 APERTURE END LIST*
D10*
X17370000Y-8800000D02*
X26000000Y-8800000D01*
X17370000Y-3950000D02*
X26000000Y-3950000D01*
X26000000Y-8800000D02*
X26000000Y-3950000D01*
X17370000Y-3950000D02*
X17370000Y-8800000D01*
D11*
X17617619Y-9120476D02*
X17617619Y-8920476D01*
X17665238Y-8920476D01*
X17693810Y-8930000D01*
X17712857Y-8949048D01*
X17722381Y-8968095D01*
X17731905Y-9006190D01*
X17731905Y-9034762D01*
X17722381Y-9072857D01*
X17712857Y-9091905D01*
X17693810Y-9110952D01*
X17665238Y-9120476D01*
X17617619Y-9120476D01*
X17817619Y-9120476D02*
X17817619Y-8987143D01*
X17817619Y-9025238D02*
X17827143Y-9006190D01*
X17836667Y-8996667D01*
X17855714Y-8987143D01*
X17874762Y-8987143D01*
X17941429Y-9120476D02*
X17941429Y-8987143D01*
X17941429Y-8920476D02*
X17931905Y-8930000D01*
X17941429Y-8939524D01*
X17950952Y-8930000D01*
X17941429Y-8920476D01*
X17941429Y-8939524D01*
X18065238Y-9120476D02*
X18046190Y-9110952D01*
X18036667Y-9091905D01*
X18036667Y-8920476D01*
X18170000Y-9120476D02*
X18150952Y-9110952D01*
X18141429Y-9091905D01*
X18141429Y-8920476D01*
X18398571Y-9120476D02*
X18398571Y-8920476D01*
X18465238Y-9063333D01*
X18531905Y-8920476D01*
X18531905Y-9120476D01*
X18712857Y-9120476D02*
X18712857Y-9015714D01*
X18703333Y-8996667D01*
X18684286Y-8987143D01*
X18646190Y-8987143D01*
X18627143Y-8996667D01*
X18712857Y-9110952D02*
X18693810Y-9120476D01*
X18646190Y-9120476D01*
X18627143Y-9110952D01*
X18617619Y-9091905D01*
X18617619Y-9072857D01*
X18627143Y-9053810D01*
X18646190Y-9044286D01*
X18693810Y-9044286D01*
X18712857Y-9034762D01*
X18808095Y-8987143D02*
X18808095Y-9187143D01*
X18808095Y-8996667D02*
X18827143Y-8987143D01*
X18865238Y-8987143D01*
X18884286Y-8996667D01*
X18893810Y-9006190D01*
X18903333Y-9025238D01*
X18903333Y-9082381D01*
X18893810Y-9101429D01*
X18884286Y-9110952D01*
X18865238Y-9120476D01*
X18827143Y-9120476D01*
X18808095Y-9110952D01*
X18989048Y-9101429D02*
X18998571Y-9110952D01*
X18989048Y-9120476D01*
X18979524Y-9110952D01*
X18989048Y-9101429D01*
X18989048Y-9120476D01*
X18989048Y-8996667D02*
X18998571Y-9006190D01*
X18989048Y-9015714D01*
X18979524Y-9006190D01*
X18989048Y-8996667D01*
X18989048Y-9015714D01*
M02*
