%TF.GenerationSoftware,KiCad,Pcbnew,(6.0.4)*%
%TF.CreationDate,2022-05-09T12:24:25+01:00*%
%TF.ProjectId,light_remote_controller,6c696768-745f-4726-956d-6f74655f636f,v0.1*%
%TF.SameCoordinates,Original*%
%TF.FileFunction,Soldermask,Top*%
%TF.FilePolarity,Negative*%
%FSLAX46Y46*%
G04 Gerber Fmt 4.6, Leading zero omitted, Abs format (unit mm)*
G04 Created by KiCad (PCBNEW (6.0.4)) date 2022-05-09 12:24:25*
%MOMM*%
%LPD*%
G01*
G04 APERTURE LIST*
G04 Aperture macros list*
%AMRoundRect*
0 Rectangle with rounded corners*
0 $1 Rounding radius*
0 $2 $3 $4 $5 $6 $7 $8 $9 X,Y pos of 4 corners*
0 Add a 4 corners polygon primitive as box body*
4,1,4,$2,$3,$4,$5,$6,$7,$8,$9,$2,$3,0*
0 Add four circle primitives for the rounded corners*
1,1,$1+$1,$2,$3*
1,1,$1+$1,$4,$5*
1,1,$1+$1,$6,$7*
1,1,$1+$1,$8,$9*
0 Add four rect primitives between the rounded corners*
20,1,$1+$1,$2,$3,$4,$5,0*
20,1,$1+$1,$4,$5,$6,$7,0*
20,1,$1+$1,$6,$7,$8,$9,0*
20,1,$1+$1,$8,$9,$2,$3,0*%
G04 Aperture macros list end*
%ADD10RoundRect,0.050000X-0.850000X0.850000X-0.850000X-0.850000X0.850000X-0.850000X0.850000X0.850000X0*%
%ADD11O,1.800000X1.800000*%
%ADD12RoundRect,0.300000X-0.450000X0.262500X-0.450000X-0.262500X0.450000X-0.262500X0.450000X0.262500X0*%
%ADD13RoundRect,0.050000X1.500000X1.500000X-1.500000X1.500000X-1.500000X-1.500000X1.500000X-1.500000X0*%
%ADD14C,3.100000*%
%ADD15RoundRect,0.300000X-0.262500X-0.450000X0.262500X-0.450000X0.262500X0.450000X-0.262500X0.450000X0*%
%ADD16RoundRect,0.050000X-1.500000X-1.500000X1.500000X-1.500000X1.500000X1.500000X-1.500000X1.500000X0*%
%ADD17RoundRect,0.300000X0.262500X0.450000X-0.262500X0.450000X-0.262500X-0.450000X0.262500X-0.450000X0*%
%ADD18RoundRect,0.050000X0.900000X-0.900000X0.900000X0.900000X-0.900000X0.900000X-0.900000X-0.900000X0*%
%ADD19C,1.900000*%
%ADD20RoundRect,0.050000X-1.200000X-0.800000X1.200000X-0.800000X1.200000X0.800000X-1.200000X0.800000X0*%
%ADD21O,2.500000X1.700000*%
%ADD22C,1.624000*%
%ADD23RoundRect,0.300000X0.450000X-0.262500X0.450000X0.262500X-0.450000X0.262500X-0.450000X-0.262500X0*%
%ADD24RoundRect,0.050000X-1.000000X1.000000X-1.000000X-1.000000X1.000000X-1.000000X1.000000X1.000000X0*%
%ADD25O,1.700000X2.100000*%
G04 APERTURE END LIST*
D10*
X182580000Y-84300000D03*
D11*
X180040000Y-84300000D03*
X177500000Y-84300000D03*
D12*
X201900000Y-71800000D03*
X201900000Y-73625000D03*
D13*
X256800000Y-43900000D03*
D14*
X251720000Y-43900000D03*
D15*
X205987500Y-62500000D03*
X207812500Y-62500000D03*
D16*
X188920000Y-83700000D03*
D14*
X194000000Y-83700000D03*
D17*
X221825000Y-65100000D03*
X220000000Y-65100000D03*
D15*
X205987500Y-59200000D03*
X207812500Y-59200000D03*
D18*
X177600000Y-75700000D03*
D19*
X177600000Y-73160000D03*
D13*
X214800000Y-43900000D03*
D14*
X209720000Y-43900000D03*
D17*
X184525000Y-73200000D03*
X182700000Y-73200000D03*
D20*
X176900000Y-50100000D03*
D21*
X176900000Y-52640000D03*
X176900000Y-55180000D03*
X176900000Y-57720000D03*
X176900000Y-60260000D03*
X176900000Y-62800000D03*
X176900000Y-65340000D03*
X176900000Y-67880000D03*
X184520000Y-67880000D03*
X184520000Y-65340000D03*
X184520000Y-62800000D03*
X184520000Y-60260000D03*
X184520000Y-57720000D03*
X184520000Y-55180000D03*
X184520000Y-52640000D03*
X184520000Y-50100000D03*
D16*
X241220000Y-83700000D03*
D14*
X246300000Y-83700000D03*
D12*
X192000000Y-71800000D03*
X192000000Y-73625000D03*
D22*
X249775000Y-49730000D03*
X247235000Y-49730000D03*
X244695000Y-49730000D03*
X242155000Y-49730000D03*
X239615000Y-49730000D03*
X237075000Y-49730000D03*
X234535000Y-49730000D03*
X231995000Y-49730000D03*
X229455000Y-49730000D03*
X226915000Y-49730000D03*
X224375000Y-49730000D03*
X221835000Y-49730000D03*
X219295000Y-49730000D03*
X216755000Y-49730000D03*
X214215000Y-49730000D03*
X214215000Y-77670000D03*
X216755000Y-77670000D03*
X219295000Y-77670000D03*
X221835000Y-77670000D03*
X224375000Y-77670000D03*
X226915000Y-77670000D03*
X229455000Y-77670000D03*
X231995000Y-77670000D03*
X234535000Y-77670000D03*
X237075000Y-77670000D03*
X239615000Y-77670000D03*
X242155000Y-77670000D03*
X244695000Y-77670000D03*
X247235000Y-77670000D03*
X249775000Y-77670000D03*
D23*
X188000000Y-74825000D03*
X188000000Y-73000000D03*
D15*
X205987500Y-65800000D03*
X207812500Y-65800000D03*
D13*
X225300000Y-43900000D03*
D14*
X220220000Y-43900000D03*
D17*
X221800000Y-59500000D03*
X219975000Y-59500000D03*
D16*
X220220000Y-83700000D03*
D14*
X225300000Y-83700000D03*
D13*
X235800000Y-43900000D03*
D14*
X230720000Y-43900000D03*
D10*
X180100000Y-80700000D03*
D11*
X177560000Y-80700000D03*
D10*
X204600000Y-43000000D03*
D11*
X202060000Y-43000000D03*
X199520000Y-43000000D03*
X196980000Y-43000000D03*
X194440000Y-43000000D03*
X191900000Y-43000000D03*
X189360000Y-43000000D03*
X186820000Y-43000000D03*
X184280000Y-43000000D03*
X181740000Y-43000000D03*
D24*
X232000000Y-52200000D03*
D25*
X229460000Y-52200000D03*
X226920000Y-52200000D03*
X224380000Y-52200000D03*
X221840000Y-52200000D03*
X219300000Y-52200000D03*
X216760000Y-52200000D03*
X214220000Y-52200000D03*
X214220000Y-75060000D03*
X216760000Y-75060000D03*
X219300000Y-75060000D03*
X221840000Y-75060000D03*
X224380000Y-75060000D03*
X226920000Y-75060000D03*
X229460000Y-75060000D03*
X232000000Y-75060000D03*
D16*
X251720000Y-83700000D03*
D14*
X256800000Y-83700000D03*
D16*
X230720000Y-83700000D03*
D14*
X235800000Y-83700000D03*
D15*
X206000000Y-69100000D03*
X207825000Y-69100000D03*
X176875000Y-46400000D03*
X178700000Y-46400000D03*
D12*
X195300000Y-71800000D03*
X195300000Y-73625000D03*
D13*
X246300000Y-43900000D03*
D14*
X241220000Y-43900000D03*
D12*
X198600000Y-71800000D03*
X198600000Y-73625000D03*
D20*
X192180000Y-49860000D03*
D21*
X192180000Y-52400000D03*
X192180000Y-54940000D03*
X192180000Y-57480000D03*
X192180000Y-60020000D03*
X192180000Y-62560000D03*
X192180000Y-65100000D03*
X192180000Y-67640000D03*
X199800000Y-67640000D03*
X199800000Y-65100000D03*
X199800000Y-62560000D03*
X199800000Y-60020000D03*
X199800000Y-57480000D03*
X199800000Y-54940000D03*
X199800000Y-52400000D03*
X199800000Y-49860000D03*
D15*
X205987500Y-55900000D03*
X207812500Y-55900000D03*
X182675000Y-76500000D03*
X184500000Y-76500000D03*
D16*
X199480000Y-83700000D03*
D14*
X204560000Y-83700000D03*
X209640000Y-83700000D03*
X214720000Y-83700000D03*
M02*
